<svg width="24" height="24" viewBox="0 0 24 24" fill="none" xmlns="http://www.w3.org/2000/svg">
<path d="M11.273 3.68676C11.1828 3.59129 11.1123 3.47898 11.0655 3.35626C11.0186 3.23353 10.9965 3.10278 11.0002 2.97148C11.0039 2.84017 11.0334 2.71089 11.0871 2.591C11.1408 2.47112 11.2176 2.36298 11.313 2.27276C11.4085 2.18254 11.5208 2.11201 11.6435 2.0652C11.7663 2.01838 11.897 1.9962 12.0283 1.99991C12.1596 2.00363 12.2889 2.03317 12.4088 2.08684C12.5287 2.14052 12.6368 2.21729 12.727 2.31276L21.227 11.3128C21.4026 11.4984 21.5004 11.7442 21.5004 11.9998C21.5004 12.2553 21.4026 12.5011 21.227 12.6868L12.727 21.6878C12.6374 21.7853 12.5293 21.8641 12.409 21.9195C12.2886 21.975 12.1585 22.0059 12.0261 22.0106C11.8937 22.0153 11.7617 21.9937 11.6377 21.9469C11.5138 21.9002 11.4003 21.8293 11.304 21.7383C11.2077 21.6474 11.1304 21.5382 11.0767 21.4171C11.0229 21.296 10.9937 21.1655 10.9908 21.033C10.9879 20.9006 11.0114 20.7689 11.0598 20.6456C11.1083 20.5223 11.1808 20.4098 11.273 20.3148L19.125 11.9998L11.273 3.68676Z" fill="#004C41"/>
</svg>
