<svg width="24" height="24" viewBox="0 0 24 24" fill="none" xmlns="http://www.w3.org/2000/svg">
<path d="M12.727 20.3132C12.8172 20.4087 12.8877 20.521 12.9346 20.6437C12.9814 20.7665 13.0036 20.8972 12.9998 21.0285C12.9961 21.1598 12.9666 21.2891 12.9129 21.409C12.8592 21.5289 12.7825 21.637 12.687 21.7272C12.5915 21.8175 12.4792 21.888 12.3565 21.9348C12.2338 21.9816 12.103 22.0038 11.9717 22.0001C11.8404 21.9964 11.7111 21.9668 11.5912 21.9132C11.4714 21.8595 11.3632 21.7827 11.273 21.6872L2.773 12.6872C2.59746 12.5016 2.49966 12.2558 2.49966 12.0002C2.49966 11.7447 2.59746 11.4989 2.773 11.3132L11.273 2.31224C11.3626 2.21468 11.4707 2.13589 11.5911 2.08047C11.7114 2.02505 11.8415 1.99408 11.9739 1.98938C12.1063 1.98468 12.2383 2.00633 12.3623 2.05307C12.4862 2.09982 12.5997 2.17073 12.696 2.26168C12.7923 2.35263 12.8696 2.46182 12.9234 2.5829C12.9771 2.70398 13.0063 2.83453 13.0092 2.96698C13.0121 3.09942 12.9886 3.23112 12.9402 3.35443C12.8917 3.47773 12.8193 3.59018 12.727 3.68524L4.875 12.0002L12.727 20.3132Z" fill="#004C41"/>
</svg>
