<svg width="30" height="30" viewBox="0 0 30 30" fill="none" xmlns="http://www.w3.org/2000/svg">
<path fill-rule="evenodd" clip-rule="evenodd" d="M9.34562 10.3937C12.3556 11.5562 15.9725 11.5563 18.9819 10.3925C20.2923 11.7753 21.3789 13.3541 22.2025 15.0719C22.7475 15.1556 23.2694 15.3094 23.7587 15.5237C22.8669 13.2462 21.3581 11.0325 19.7362 9.375L22.045 6C21.6674 5.75411 21.2736 5.53402 20.8662 5.34125C19.3412 4.60062 16.8919 3.75 14.1944 3.75C11.4406 3.75 8.925 4.6375 7.39062 5.38813C7.23812 5.46313 7.09562 5.53604 6.96312 5.60687C6.69625 5.75062 6.47125 5.88438 6.295 6L8.5875 9.375C3.21875 15.0238 -0.781253 26.2481 14.1944 26.2481C15.2195 26.2537 16.2438 26.191 17.2606 26.0606C16.8573 25.7266 16.4977 25.3431 16.19 24.9194C15.5767 24.971 14.9115 24.9973 14.1944 24.9981C10.5787 24.9981 8.31125 24.3162 6.95687 23.3787C5.66 22.4806 5.09062 21.2725 5.01 19.8587C4.92625 18.39 5.37562 16.6756 6.2175 14.94C7.02062 13.285 8.14187 11.6919 9.34562 10.3937ZM18.2525 9.33L20.1012 6.62812C18.3825 6.75187 16.3369 7.15563 14.3681 7.72563C12.9619 8.13188 11.4 8.07 9.9525 7.80312C9.58787 7.73562 9.22577 7.65515 8.86687 7.56187L10.0669 9.32875C12.6394 10.2444 15.6806 10.2444 18.2525 9.33ZM8.6275 6.1975C9.1275 6.34625 9.64937 6.47562 10.1794 6.57375C11.5231 6.82125 12.8712 6.8575 14.0206 6.52437C15.3607 6.13381 16.7238 5.82677 18.1019 5.605C16.9519 5.25875 15.6075 5 14.1937 5C12.0406 5 10.0331 5.60063 8.6275 6.1975Z" fill="white"/>
<path fill-rule="evenodd" clip-rule="evenodd" d="M14.1687 17.5C14.8068 17.5 15.3893 17.7394 15.8312 18.1331C15.598 18.5382 15.411 18.9682 15.2737 19.415C15.1674 19.2142 15.0083 19.0462 14.8136 18.929C14.6189 18.8118 14.3959 18.7499 14.1687 18.75V21.25C14.4918 21.25 14.7862 21.1275 15.0081 20.9262C14.9836 21.3937 15.0117 21.8625 15.0918 22.3237C14.798 22.4403 14.4848 22.5001 14.1687 22.5V23.125H12.9187V22.5C12.4016 22.5001 11.8972 22.3398 11.475 22.0413C11.0528 21.7428 10.7335 21.3207 10.5612 20.8331C10.506 20.6768 10.5152 20.505 10.5867 20.3554C10.6582 20.2059 10.7861 20.0908 10.9425 20.0356C11.0988 19.9804 11.2706 19.9896 11.4202 20.0611C11.5697 20.1326 11.6848 20.2606 11.74 20.4169C11.8262 20.6606 11.9858 20.8716 12.1969 21.0208C12.408 21.17 12.6602 21.2501 12.9187 21.25V18.75C12.2557 18.75 11.6198 18.4866 11.1509 18.0178C10.6821 17.5489 10.4187 16.913 10.4187 16.25C10.4187 15.587 10.6821 14.9511 11.1509 14.4822C11.6198 14.0134 12.2557 13.75 12.9187 13.75V13.125H14.1687V13.75C14.6858 13.7499 15.1902 13.9102 15.6124 14.2087C16.0346 14.5072 16.3539 14.9293 16.5262 15.4169C16.5535 15.4943 16.5654 15.5763 16.561 15.6583C16.5566 15.7402 16.5361 15.8205 16.5007 15.8946C16.4653 15.9686 16.4157 16.035 16.3547 16.0899C16.2936 16.1447 16.2223 16.187 16.145 16.2144C16.0676 16.2417 15.9855 16.2535 15.9036 16.2492C15.8216 16.2448 15.7413 16.2243 15.6672 16.1889C15.5932 16.1535 15.5268 16.1039 15.472 16.0428C15.4171 15.9818 15.3748 15.9105 15.3475 15.8331C15.2612 15.5894 15.1016 15.3784 14.8905 15.2292C14.6794 15.08 14.4272 14.9999 14.1687 15V17.5ZM12.9187 15C12.5872 15 12.2692 15.1317 12.0348 15.3661C11.8004 15.6005 11.6687 15.9185 11.6687 16.25C11.6687 16.5815 11.8004 16.8995 12.0348 17.1339C12.2692 17.3683 12.5872 17.5 12.9187 17.5V15Z" fill="white"/>
<path d="M21.8751 21.5125L22.6189 20.8456L23.4532 21.7769L21.2501 23.7506L19.0476 21.7756L19.882 20.845L20.6251 21.5119V18.75H21.8751V21.5125Z" fill="white"/>
<path fill-rule="evenodd" clip-rule="evenodd" d="M21.25 26.25C22.5761 26.25 23.8479 25.7232 24.7855 24.7855C25.7232 23.8479 26.25 22.5761 26.25 21.25C26.25 19.9239 25.7232 18.6521 24.7855 17.7145C23.8479 16.7768 22.5761 16.25 21.25 16.25C19.9239 16.25 18.6521 16.7768 17.7145 17.7145C16.7768 18.6521 16.25 19.9239 16.25 21.25C16.25 22.5761 16.7768 23.8479 17.7145 24.7855C18.6521 25.7232 19.9239 26.25 21.25 26.25ZM21.25 25C22.2446 25 23.1984 24.6049 23.9017 23.9017C24.6049 23.1984 25 22.2446 25 21.25C25 20.2554 24.6049 19.3016 23.9017 18.5983C23.1984 17.8951 22.2446 17.5 21.25 17.5C20.2554 17.5 19.3016 17.8951 18.5983 18.5983C17.8951 19.3016 17.5 20.2554 17.5 21.25C17.5 22.2446 17.8951 23.1984 18.5983 23.9017C19.3016 24.6049 20.2554 25 21.25 25Z" fill="white"/>
</svg>
