<svg width="32" height="32" viewBox="0 0 32 32" fill="none" xmlns="http://www.w3.org/2000/svg">
<path d="M26.343 9.14891L21.3369 14.2965L19.8199 12.7487L18.1745 14.4525L21.3252 17.6923L28 10.8528L26.343 9.14891ZM7.33384 8.80093C7.31947 9.43527 7.43038 10.066 7.65987 10.655C7.88935 11.244 8.23264 11.779 8.66898 12.2277C9.10531 12.6764 9.62561 13.0294 10.1984 13.2653C10.7712 13.5013 11.3846 13.6154 12.0015 13.6006C12.6184 13.6154 13.2318 13.5013 13.8046 13.2653C14.3774 13.0294 14.8977 12.6764 15.3341 12.2277C15.7704 11.779 16.1137 11.244 16.3432 10.655C16.5727 10.066 16.6836 9.43527 16.6692 8.80093C16.6836 8.16659 16.5727 7.53585 16.3432 6.94684C16.1137 6.35784 15.7704 5.82283 15.3341 5.37416C14.8977 4.92549 14.3774 4.57249 13.8046 4.33652C13.2318 4.10054 12.6184 3.9865 12.0015 4.00127C11.3846 3.9865 10.7712 4.10054 10.1984 4.33652C9.62561 4.57249 9.10531 4.92549 8.66898 5.37416C8.23264 5.82283 7.88935 6.35784 7.65987 6.94684C7.43038 7.53585 7.31947 8.16659 7.33384 8.80093ZM14.3354 8.80093C14.3504 9.12017 14.3003 9.43911 14.1883 9.73726C14.0763 10.0354 13.9049 10.3062 13.6852 10.5322C13.4654 10.7582 13.202 10.9344 12.9121 11.0495C12.6221 11.1647 12.312 11.2162 12.0015 11.2008C11.6911 11.2162 11.3809 11.1647 11.0909 11.0495C10.801 10.9344 10.5377 10.7582 10.3179 10.5322C10.0981 10.3062 9.92672 10.0354 9.81474 9.73726C9.70277 9.43911 9.65267 9.12017 9.66768 8.80093C9.65267 8.4817 9.70277 8.16276 9.81474 7.86461C9.92672 7.56646 10.0981 7.29569 10.3179 7.06969C10.5377 6.84369 10.801 6.66746 11.0909 6.55232C11.3809 6.43718 11.6911 6.38567 12.0015 6.4011C12.312 6.38567 12.6221 6.43718 12.9121 6.55232C13.202 6.66746 13.4654 6.84369 13.6852 7.06969C13.9049 7.29569 14.0763 7.56646 14.1883 7.86461C14.3003 8.16276 14.3504 8.4817 14.3354 8.80093ZM7.33384 20.8001C7.33384 19.8454 7.70267 18.9298 8.35919 18.2547C9.01571 17.5796 9.90614 17.2003 10.8346 17.2003H13.1684C14.0969 17.2003 14.9873 17.5796 15.6439 18.2547C16.3004 18.9298 16.6692 19.8454 16.6692 20.8001V22H19.003V20.8001C19.003 20.0122 18.8521 19.232 18.5589 18.5041C18.2657 17.7762 17.8359 17.1149 17.2941 16.5577C16.7523 16.0006 16.1091 15.5587 15.4012 15.2572C14.6934 14.9557 13.9347 14.8005 13.1684 14.8005H10.8346C9.28717 14.8005 7.80312 15.4326 6.70892 16.5577C5.61472 17.6829 5 19.2089 5 20.8001V22H7.33384V20.8001Z" fill="white"/>
</svg>
