<svg width="30" height="30" viewBox="0 0 30 30" fill="none" xmlns="http://www.w3.org/2000/svg">
<g clip-path="url(#clip0_29_659)">
<path d="M28.2812 10.582L19.4162 1.71563C18.9221 1.22109 18.2664 0.9375 17.6167 0.9375C17.1456 0.9375 16.7246 1.08609 16.397 1.36781L1.76636 13.9547C1.51712 14.166 1.3148 14.427 1.1724 14.7211C1.03 15.0152 0.950668 15.3358 0.939487 15.6623C0.913237 16.3627 1.18417 17.0339 1.70261 17.5528L12.4468 28.298C12.9404 28.7911 13.5793 29.0625 14.2459 29.0625C14.5876 29.062 14.9252 28.9878 15.2356 28.8447C15.5459 28.7017 15.8217 28.4933 16.044 28.2337L28.629 13.6017C29.3223 12.7964 29.1695 11.4703 28.2812 10.582ZM1.79121 15.6942C1.79844 15.485 1.84939 15.2796 1.94078 15.0913C2.03217 14.9029 2.16197 14.7358 2.32183 14.6006L16.9534 2.01422C17.1231 1.8675 17.3528 1.78969 17.6167 1.78969C18.0357 1.78969 18.4834 1.9875 18.8139 2.31844L19.5821 3.08625L3.26777 17.9123L2.30542 16.9495C1.95621 16.6003 1.77339 16.1545 1.79121 15.6942ZM27.9826 13.0463L15.3985 27.6783C15.257 27.8458 15.0804 27.9803 14.8813 28.0723C14.6821 28.1642 14.4652 28.2113 14.2459 28.2103C13.8067 28.2103 13.3815 28.027 13.0487 27.6947L7.0473 21.6923L22.7228 6.22828L27.6789 11.1844C28.2432 11.7492 28.3801 12.585 27.9826 13.0463Z" fill="white"/>
<path d="M22.4236 8.72192L10.5229 20.8691L14.0517 24.3983L14.5865 23.8143C14.9447 23.8958 15.3623 23.7847 15.6633 23.4772C16.1128 23.0174 16.3842 22.3579 16.5539 21.6627L25.5408 11.8396L22.4236 8.72192ZM22.2286 12.9786C21.8986 13.1254 21.3394 13.289 21.8817 12.6557L22.2469 12.9393L22.2286 12.9786ZM24.3065 11.5283C24.3112 11.5241 24.3089 11.5185 24.3117 11.5143L24.6567 11.8593L18.1973 18.9205C18.4509 18.4021 18.6403 17.864 18.8236 17.3188C18.9051 17.0741 19.1156 17.1304 19.283 16.9616C19.6237 16.6175 19.9528 16.2674 20.2847 15.9252C20.7047 15.493 20.849 14.9197 21.2358 14.4852C21.6515 14.0193 22.0504 13.7521 22.3148 13.2294C23.092 12.8924 23.7839 12.0266 24.3065 11.5283ZM11.4225 20.8649L22.4283 9.63036L24.1875 11.39C24.1823 11.3929 24.1772 11.39 24.1725 11.3947C23.8669 11.6854 23.5537 11.9736 23.2289 12.254C22.9848 12.4633 22.7306 12.6606 22.4672 12.845C22.5084 12.6529 22.4878 12.3163 22.215 12.2961C21.6356 12.2507 21.1275 13.4765 21.9 13.3588C21.9558 13.3499 22.0106 13.3283 22.0659 13.3129C21.9839 13.4629 21.8878 13.6054 21.7875 13.7408C21.5615 14.0488 21.2025 14.2283 20.9461 14.5161C20.6203 14.8808 20.4928 15.404 20.144 15.7841C19.9898 15.9519 19.1484 17.0272 18.8494 16.9007C18.8123 16.8861 18.7598 16.9063 18.7472 16.9419C18.6509 17.22 18.5553 17.4996 18.4603 17.7805C18.4439 17.8297 18.3436 18.0383 18.2451 18.245C18.344 17.7904 18.3567 17.2991 18.3065 17.0671C18.2887 16.985 18.1912 16.979 18.1448 17.016C17.7375 17.3418 17.617 18.1161 17.8364 18.7044C17.714 18.83 17.5598 18.9191 17.3625 18.9608C17.2476 18.8975 17.1637 19.0682 17.279 19.1319C17.3165 19.1521 17.3503 19.1619 17.3854 19.175C17.2204 19.3086 17.032 19.4394 16.8295 19.5707C16.8806 18.7513 16.9383 17.1491 16.0101 16.9372C15.9642 16.9269 15.9248 16.9396 15.9033 16.9785C15.4973 17.6919 14.9165 19.1877 15.7565 19.9635C15.8554 20.0549 15.9858 19.9152 15.8869 19.8238C15.2423 19.2285 15.6258 18.1143 15.8601 17.5054C16.2234 16.565 16.6069 18.3725 16.6265 18.6505C16.6514 18.9983 16.6472 19.3485 16.6289 19.6986C15.4645 20.428 13.9781 21.2127 13.8642 22.6785C13.8389 23.0094 13.9134 23.2672 14.0465 23.4566L14.0311 23.474L11.4225 20.8649ZM18.0694 17.3938C18.184 17.6266 18.2011 17.8525 18.1205 18.0716C18.0997 18.2215 18.0522 18.3664 17.9803 18.4996C17.8931 18.1236 17.9456 17.7018 18.0694 17.3938ZM14.2753 23.2077C14.1951 23.0165 14.1309 22.7746 14.0869 22.4708C14.1501 22.1352 14.3111 21.8257 14.5495 21.5811C15.105 20.8921 15.8812 20.4369 16.6167 19.9668C16.5951 20.232 16.5616 20.4962 16.5164 20.7585L14.2753 23.2077ZM15.8489 22.8261C15.7078 23.1097 15.506 23.3588 15.2578 23.5555C15.0501 23.6816 14.8701 23.7168 14.7131 23.6755L16.1714 22.0827C16.0776 22.3358 15.9708 22.5852 15.8489 22.8261ZM16.8117 19.8407C17.0765 19.6672 17.3325 19.4886 17.5669 19.2932C17.5959 19.2688 17.5964 19.2397 17.5875 19.2111C17.7375 19.1999 17.8617 19.1052 17.9639 18.9632C17.9723 18.9768 17.9775 18.9932 17.9873 19.0063C17.9966 19.0207 18.009 19.0327 18.0236 19.0416C18.0382 19.0504 18.0547 19.0558 18.0717 19.0574L16.7531 20.4983C16.7784 20.2719 16.7986 20.0497 16.8117 19.8407Z" fill="white"/>
</g>
<defs>
<clipPath id="clip0_29_659">
<rect width="30" height="30" fill="white"/>
</clipPath>
</defs>
</svg>
