<svg width="30" height="30" viewBox="0 0 30 30" fill="none" xmlns="http://www.w3.org/2000/svg">
<path d="M26.25 15H16.25M16.25 15L21.05 10M16.25 15L21.05 20M8.75 16.25C7.91625 18.3338 6.66625 20.4163 5 21.25H12.9163C12.9163 21.25 14.1663 21.25 15 20.4163M12.0837 16.25H3.75M13.75 12.5C13.75 11.7583 13.5301 11.0333 13.118 10.4166C12.706 9.79993 12.1203 9.31928 11.4351 9.03545C10.7498 8.75162 9.99584 8.67736 9.26841 8.82206C8.54098 8.96675 7.8728 9.3239 7.34835 9.84835C6.8239 10.3728 6.46675 11.041 6.32206 11.7684C6.17736 12.4958 6.25162 13.2498 6.53545 13.9351C6.81928 14.6203 7.29993 15.206 7.91661 15.618C8.5333 16.0301 9.25832 16.25 10 16.25" stroke="white" stroke-width="1.5" stroke-linecap="round" stroke-linejoin="round"/>
</svg>
