<svg width="41" height="32" viewBox="0 0 41 32" fill="none" xmlns="http://www.w3.org/2000/svg">
<path d="M29.3128 11.0275C29.4082 10.9373 29.5205 10.8668 29.6433 10.82C29.766 10.7732 29.8967 10.751 30.028 10.7547C30.1593 10.7584 30.2886 10.7879 30.4085 10.8416C30.5284 10.8953 30.6365 10.9721 30.7268 11.0675C30.817 11.163 30.8875 11.2753 30.9343 11.398C30.9811 11.5208 31.0033 11.6515 30.9996 11.7828C30.9959 11.9141 30.9663 12.0434 30.9127 12.1633C30.859 12.2832 30.7822 12.3913 30.6868 12.4815L21.6868 20.9815C21.5011 21.1571 21.2553 21.2549 20.9998 21.2549C20.7442 21.2549 20.4984 21.1571 20.3128 20.9815L11.3118 12.4815C11.2142 12.3919 11.1354 12.2838 11.08 12.1635C11.0246 12.0431 10.9936 11.913 10.9889 11.7806C10.9842 11.6482 11.0058 11.5162 11.0526 11.3923C11.0993 11.2683 11.1702 11.1549 11.2612 11.0585C11.3521 10.9622 11.4613 10.8849 11.5824 10.8312C11.7035 10.7774 11.834 10.7482 11.9665 10.7453C12.0989 10.7425 12.2306 10.7659 12.3539 10.8144C12.4772 10.8628 12.5897 10.9353 12.6847 11.0275L20.9998 18.8795L29.3128 11.0275Z" fill="#84C448"/>
</svg>
